<?xml version="1.0" encoding="UTF-8" standalone="no"?>
<!DOCTYPE svg PUBLIC "-//W3C//DTD SVG 1.1//EN" "http://www.w3.org/Graphics/SVG/1.1/DTD/svg11.dtd">
<svg width="100%" height="100%" viewBox="0 0 354 98" version="1.1" xmlns="http://www.w3.org/2000/svg" xmlns:xlink="http://www.w3.org/1999/xlink" xml:space="preserve" xmlns:serif="http://www.serif.com/" style="fill-rule:evenodd;clip-rule:evenodd;stroke-linejoin:round;stroke-miterlimit:2;">
    <g transform="matrix(1,0,0,1,-1318,-4806)">
        <g transform="matrix(1,0,0,1,0,4432.26)">
            <g transform="matrix(1,0,0,1,1006.71,-1301.92)">
                <g>
                    <g>
                        <g transform="matrix(0.632973,0,0,0.632973,-214.299,1211.55)">
                            <path d="M924.451,816.886C923.343,817.204 922.173,817.375 920.963,817.375C913.997,817.375 908.342,811.72 908.342,804.754C908.342,797.788 913.997,792.133 920.963,792.133C922.999,792.133 924.924,792.617 926.628,793.475L926.629,793.475C927.732,794.031 928.743,794.744 929.632,795.585C935.994,801.09 938.279,811.043 934.933,827.139C934.933,827.139 933.719,813.923 925.09,816.683C925.009,816.712 924.926,816.739 924.844,816.766L924.842,816.767C924.707,816.814 924.577,816.854 924.451,816.886Z" style="fill:rgb(0,0,1);"/>
                        </g>
                        <g transform="matrix(0.591044,0,0,0.591044,-171.286,1251.82)">
                            <circle cx="900" cy="800" r="75.115" style="fill:url(#_Radial1);"/>
                            <clipPath id="_clip2">
                                <circle cx="900" cy="800" r="75.115"/>
                            </clipPath>
                            <g clip-path="url(#_clip2)">
                                <g transform="matrix(1.66985,1.39806e-16,1.61383e-16,-1.50854,-266.729,2025.51)">
                                    <path d="M702.943,724.885L673.486,724.885L673.486,785.64C673.486,795.61 680.08,803.693 688.214,803.693L688.215,803.693C696.349,803.693 702.943,795.61 702.943,785.64L702.943,724.885Z" style="fill:rgb(0,0,1);"/>
                                </g>
                            </g>
                        </g>
                        <g transform="matrix(0.600439,0,0,0.600439,-184.749,1234.69)">
                            <path d="M924.451,816.886C923.343,817.204 922.173,817.375 920.963,817.375C913.997,817.375 908.342,811.72 908.342,804.754C908.342,797.788 913.997,792.133 920.963,792.133C922.999,792.133 924.924,792.617 926.628,793.475L926.629,793.475C927.732,794.031 928.743,794.744 929.632,795.585C935.994,801.09 938.279,811.043 934.933,827.139C934.933,827.139 933.719,813.923 925.09,816.683C925.009,816.712 924.926,816.739 924.844,816.766L924.842,816.767C924.707,816.814 924.577,816.854 924.451,816.886Z" style="fill:rgb(0,0,1);"/>
                        </g>
                        <g transform="matrix(0.0520491,0,0,0.0520491,479.283,1667.25)">
                            <path d="M-2666.9,1528.52C-2644.8,1548.75 -2621.12,1567.28 -2596.08,1583.82C-2505,1644 -2396.66,1676.91 -2286.91,1678.66C-2286.9,1696.63 -2286.89,1714.6 -2286.88,1732.58C-2382.83,1731.33 -2478.84,1708.41 -2565.89,1663.8C-2602.37,1645.11 -2636.93,1622.78 -2669.04,1597.35L-2669.04,1560.88C-2669.03,1550.09 -2668.31,1539.27 -2666.9,1528.52ZM-2822.29,1421.93C-2831.15,1406.93 -2839.39,1391.56 -2846.96,1375.85C-2904.84,1255.82 -2922.96,1116.75 -2898.23,985.567C-2873.82,856.101 -2807.44,735.414 -2711.67,644.916C-2623.44,561.542 -2510.69,504.346 -2391.57,482.848C-2354.17,476.1 -2315.83,472.799 -2278.15,472.828C-2191.31,473.035 -2103.64,491.285 -2023.48,526.959C-1893.74,584.698 -1784.36,687.876 -1719.04,814.385C-1660.16,928.412 -1637.53,1061.02 -1655.03,1188.87C-1668.95,1290.56 -1708.48,1388.81 -1768.81,1472.03C-1848.7,1582.23 -1964.46,1665.41 -2094.69,1705.29C-2099.94,1706.9 -2105.2,1708.43 -2110.49,1709.89L-2110.49,1653.67C-2024.96,1627.31 -1945.42,1580.75 -1880.55,1518.53C-1788.54,1430.28 -1726.76,1310.89 -1708.82,1184.25C-1692.22,1067.12 -1712.39,945.165 -1766.54,839.891C-1836.63,703.636 -1962.96,597.032 -2110.48,551.861C-2164.06,535.453 -2220.05,527.052 -2276.37,526.74C-2277.61,526.735 -2278.86,526.733 -2280.1,526.734C-2391.12,526.998 -2502.79,560.152 -2596.08,621.785C-2700.4,690.698 -2781.43,793.989 -2822.94,912.293C-2862.81,1025.92 -2865.75,1151.88 -2831.39,1267.25C-2821.95,1298.95 -2809.67,1329.77 -2794.85,1359.32C-2805.7,1379.38 -2814.87,1400.35 -2822.29,1421.93Z" style="fill:rgb(0,0,1);"/>
                        </g>
                        <g transform="matrix(0.600439,0,0,0.600439,-184.749,1234.69)">
                            <path d="M924.451,816.886C923.343,817.204 922.173,817.375 920.963,817.375C913.997,817.375 908.342,811.72 908.342,804.754C908.342,797.788 913.997,792.133 920.963,792.133C922.999,792.133 924.924,792.617 926.628,793.475L926.629,793.475C927.732,794.031 928.743,794.744 929.632,795.585C935.994,801.09 938.279,811.043 934.933,827.139C934.933,827.139 933.719,813.923 925.09,816.683C925.009,816.712 924.926,816.739 924.844,816.766L924.842,816.767C924.707,816.814 924.577,816.854 924.451,816.886Z" style="fill:rgb(0,0,1);"/>
                        </g>
                        <g transform="matrix(0.591044,0,0,0.591044,-171.286,1251.82)">
                            <path d="M900.132,717.971C911.507,717.998 922.89,720.389 933.296,725.021C946.196,730.762 957.541,739.888 965.942,751.224C974.879,763.285 980.406,777.788 981.716,792.79C982.988,807.35 980.321,822.251 973.986,835.444C965.344,853.439 949.957,868.073 931.461,875.769C914.08,883.001 894.302,883.998 876.222,878.523C863.861,874.78 852.435,868.048 843.148,859.112C833.056,849.403 825.482,837.078 821.441,823.658C816.551,807.423 816.851,789.664 822.326,773.582C826.56,761.143 833.867,749.736 843.414,740.632C854.949,729.634 869.741,722.069 885.493,719.253C890.235,718.405 895.058,717.982 899.868,717.971C899.956,717.971 900.044,717.971 900.132,717.971ZM899.89,731.799C890.416,731.822 880.906,733.821 872.233,737.697C858.333,743.908 846.62,754.919 839.546,768.42C833.008,780.895 830.513,795.461 832.447,809.434C833.979,820.507 838.301,831.159 844.925,840.212C853.611,852.082 866.187,861.036 880.229,865.288C895.166,869.811 911.678,869.023 926.149,863.002C937.665,858.21 947.836,850.166 955.196,840.046C961.73,831.062 966.027,820.453 967.553,809.433C969.481,795.516 967.013,781.028 960.55,768.603C953.501,755.052 941.77,743.954 927.767,737.697C919.101,733.823 909.659,731.822 900.11,731.799C900.037,731.799 899.963,731.799 899.89,731.799Z" style="fill:rgb(0,0,1);"/>
                        </g>
                        <g transform="matrix(0.423719,0,0,0.423719,249.509,1026.59)">
                            <text x="403.588px" y="1655.26px" style="font-family:'Raleway-SemiBold', 'Raleway', sans-serif;font-weight:600;font-size:124.316px;fill:white;">OUT<tspan x="663.035px 746.823px 829.369px 904.704px " y="1655.26px 1655.26px 1655.26px 1655.26px ">CAST</tspan></text>
                        </g>
                        <g transform="matrix(0.166687,0,-9.85573e-18,0.166687,369.998,1478.89)">
                            <text x="403.588px" y="1655.26px" style="font-family:'Raleway-SemiBold', 'Raleway', sans-serif;font-weight:600;font-size:124.316px;fill:white;">S<tspan x="592.05px 777.654px 984.266px 1179.57px " y="1655.26px 1655.26px 1655.26px 1655.26px ">TORE</tspan></text>
                        </g>
                    </g>
                </g>
            </g>
        </g>
    </g>
    <defs>
        <radialGradient id="_Radial1" cx="0" cy="0" r="1" gradientUnits="userSpaceOnUse" gradientTransform="matrix(45.4969,-78.5574,78.5574,45.4969,882.529,841.261)"><stop offset="0" style="stop-color:rgb(214,33,0);stop-opacity:1"/><stop offset="0.58" style="stop-color:rgb(203,27,11);stop-opacity:1"/><stop offset="0.8" style="stop-color:rgb(179,13,34);stop-opacity:1"/><stop offset="1" style="stop-color:rgb(155,0,57);stop-opacity:1"/></radialGradient>
    </defs>
</svg>
